{"title":"Grace-AC3-5,1-DVDRip[Eng]2009","uid":5060801,"size":1333592607,"categoryP":"video","categoryS":"movies","magnet":"?xt=urn:btih:89b97d2e69c35f2fe753602c62bcda1c8b0611d9&amp;dn=Grace-AC3-5%2C1-DVDRip%5BEng%5D2009&amp;tr=udp%3A%2F%2Ftracker.openbittorrent.com%3A80&amp;tr=udp%3A%2F%2Fopen.demonii.com%3A1337&amp;tr=udp%3A%2F%2Ftracker.coppersurfer.tk%3A6969&amp;tr=udp%3A%2F%2Fexodus.desync.com%3A6969","seeders":1,"leechers":0,"uploader":"FatFreddy31","files":-1,"time":1250697885,"description":" &lt;a href=&quot;http://www.imdb.com/title/tt1220213/&quot; rel=&quot;nofollow&quot; target=&quot;_NEW&quot;&gt;http://www.imdb.com/title/tt1220213/&lt;/a&gt;\n &lt;a href=&quot;\nhttp://www.grace-themovie.com/&quot; rel=&quot;nofollow&quot; target=&quot;_NEW&quot;&gt;\nhttp://www.grace-themovie.com/&lt;/a&gt;\n\nUser Rating:7.1/10 - 386 votes\n\nDrama,Horror,Thriller\n\nDirector:Paul Solet\n\nCast:Jordan Ladd/Gabrielle Rose/Samantha Ferris/Malcolm Stewart, and others.\n\nPlot:\nAfter losing her unborn child, Madeline Matheson insists on carrying the baby to term. Following the delivery, the child miraculously returns to life with an appetite for human blood. Madeline is faced with a mother's ultimate decision....\n\nInfo:\n\nGeneral\nComplete name                    : Grace-AC3-5,1-DVDRip[Eng]2009.avi\nFormat                           : AVI\nFormat/Info                      : Audio Video Interleave\nFile size                        : 1.24 GiB\nDuration                         : 1h 24mn\nOverall bit rate                 : 2 104 Kbps\nWriting application              : VirtualDubMod 1.5.4.1 (build 2178/release)\nWriting library                  : VirtualDubMod build 2178/release\n\nVideo\nFormat                           : MPEG-4 Visual\nFormat profile                   : Simple@L3\nFormat settings, BVOP            : No\nFormat settings, QPel            : No\nFormat settings, GMC             : No warppoints\nFormat settings, Matrix          : Default\nCodec ID                         : XVID\nCodec ID/Hint                    : XviD\nDuration                         : 1h 24mn\nBit rate                         : 1 646 Kbps\nWidth                            : 704 pixels\nHeight                           : 304 pixels\nDisplay aspect ratio             : 2.35\nFrame rate                       : 23.976 fps\nResolution                       : 24 bits\nColorimetry                      : 4:2:0\nScan type                        : Progressive\nBits/(Pixel*Frame)               : 0.321\nStream size                      : 995 MiB (78%)\nWriting library                  : XviD 1.1.2 (UTC 2006-11-01)\n\nAudio\nFormat                           : AC-3\nFormat/Info                      : Audio Coding 3\nCodec ID                         : 2000\nDuration                         : 1h 24mn\nBit rate mode                    : Constant\nBit rate                         : 448 Kbps\nChannel(s)                       : 6 channels\nChannel positions                : Front: L C R, Surround: L R, LFE\nSampling rate                    : 48.0 KHz\nStream size                      : 271 MiB (21%)\nAlignment                        : Split accross interleaves\nInterleave, duration             : 42 ms (1.00 video frame)\nInterleave, preload duration     : 500 ms\n\nEnjoy...","torrent":{"xt":"urn:btih:89b97d2e69c35f2fe753602c62bcda1c8b0611d9","amp;dn":"Grace-AC3-5%2C1-DVDRip%5BEng%5D2009","amp;tr":["udp%3A%2F%2Ftracker.openbittorrent.com%3A80","udp%3A%2F%2Fopen.demonii.com%3A1337","udp%3A%2F%2Ftracker.coppersurfer.tk%3A6969","udp%3A%2F%2Fexodus.desync.com%3A6969"],"infoHash":"89b97d2e69c35f2fe753602c62bcda1c8b0611d9","infoHashBuffer":{"type":"Buffer","data":[137,185,125,46,105,195,95,47,231,83,96,44,98,188,218,28,139,6,17,217]},"announce":[],"urlList":[]}}